<?xml version="1.0" encoding="UTF-8" standalone="no"?>
<!-- Created with Inkscape (http://www.inkscape.org/) -->

<svg
   width="252.418"
   height="192.42599"
   viewBox="0 0 66.785595 50.912711"
   version="1.1"
   id="svg297"
   xml:space="preserve"
   xmlns="http://www.w3.org/2000/svg"
   xmlns:svg="http://www.w3.org/2000/svg"><g
     id="g955"
     transform="translate(-26.825753)"><path
       id="path218"
       style="display:inline;fill:#2c2c2c;fill-opacity:1;stroke-width:0.266303"
       d="m 22.180323,1.6546739 c -0.87674,-2.653e-4 -1.5875,0.5922993 -1.5875,1.3229166 0,0.7306183 0.71076,1.3230639 1.5875,1.3229167 0.533313,-8.95e-5 1.026386,-0.2247185 1.32085,-0.5901449 0.02542,-0.031544 0.08105,-0.073817 0.225826,-0.057878 4.041554,0.4449474 5.875358,1.9914378 6.152596,2.2463745 0.174544,0.1605092 0.196703,0.2219381 0.267683,0.4981608 0.476345,1.8534121 0.471048,4.3375864 0.334864,6.1898034 -0.04947,0.672821 -0.386908,0.704581 -1.163754,0.745691 -2.045386,0.10824 -3.976684,0.301159 -5.794478,0.582393 -0.393675,0.06091 -1.121136,0.142295 -1.661914,-0.646472 C 20.790616,11.70573 16.023697,1.7584648 13.350888,1.8412258 9.979362,1.9456222 6.1936504,13.899845 6.2500294,22.129393 c 0.00883,1.288363 -0.3643475,2.218119 -0.6609415,2.648934 -2.963717,4.304866 -4.5604451,8.928518 -4.5604451,16.152502 0,11.985653 20.1612952,11.901082 33.3927932,11.901082 13.231498,0 33.392793,0.08457 33.392793,-11.901082 0,-7.223984 -1.596729,-11.847636 -4.560445,-16.152502 -0.296587,-0.430815 -0.669768,-1.360571 -0.660941,-2.648934 0.05638,-8.229548 -3.72933,-20.1837708 -7.100859,-20.2881672 -2.672809,-0.082761 -7.439728,9.8645042 -8.511108,11.4272092 -0.540768,0.788767 -1.268229,0.707382 -1.661914,0.646472 -1.817794,-0.281234 -3.749082,-0.474153 -5.794478,-0.582393 -0.776836,-0.04111 -1.114294,-0.07287 -1.163753,-0.745691 -0.136184,-1.852217 -0.141482,-4.3363909 0.334863,-6.189803 0.07099,-0.2762227 0.09313,-0.3376516 0.267684,-0.4981608 0.277228,-0.2549367 2.111042,-1.8014271 6.152596,-2.2463745 0.144777,-0.015939 0.200407,0.026333 0.225826,0.057878 0.294454,0.3654264 0.787536,0.5900554 1.320849,0.5901449 0.87674,1.472e-4 1.5875,-0.5922984 1.5875,-1.3229167 0,-0.7306173 -0.71076,-1.3231819 -1.5875,-1.3229166 -0.699455,2.117e-4 -1.312531,0.3817001 -1.515669,0.9332763 -0.0206,0.055929 -0.038,0.086032 -0.129708,0.097669 -1.165453,0.1478766 -5.994466,1.5177719 -7.748364,3.05201 -0.01548,0.013546 -0.0309,0.039278 -0.03876,0.073897 -0.647488,2.8505329 -0.680775,4.3422964 -0.758093,6.7355064 -0.01846,0.571315 -0.816465,0.718802 -1.210262,0.703833 -0.770189,-0.04316 -1.239641,-0.01712 -1.680518,0 -0.393787,0.01497 -1.191802,-0.132518 -1.210262,-0.703833 C 32.293593,10.153823 32.260308,8.6620595 31.61282,5.8115266 31.60492,5.7769076 31.58954,5.7511756 31.57406,5.7376296 29.820157,4.2033906 24.991144,2.8334953 23.825701,2.6856187 23.733991,2.6739827 23.716593,2.6438802 23.695993,2.5879502 23.492845,2.036374 22.879778,1.6548856 22.180323,1.6546739 Z m -0.03566,0.3922241 c 0.616965,-1.795e-4 1.117232,0.4165595 1.117245,0.9306925 -1.3e-5,0.514133 -0.50028,0.9308721 -1.117245,0.9306926 -0.616754,-5.89e-5 -1.116714,-0.4167282 -1.116727,-0.9306926 1.3e-5,-0.5139644 0.499973,-0.9306336 1.116727,-0.9306925 z m 24.55354,0 c 0.616754,5.84e-5 1.116715,0.4167278 1.116728,0.9306925 -1.3e-5,0.5139647 -0.499974,0.9306342 -1.116728,0.9306926 C 46.08125,3.9084622 45.580975,3.4917232 45.580962,2.9775905 45.580975,2.4634579 46.08125,2.0467189 46.698206,2.046898 Z M 13.472844,3.9780462 c 1.424212,-0.021463 5.441356,8.0375758 6.027539,9.3301798 0.529025,1.166543 -0.08495,1.476335 -0.343648,1.509985 -3.969793,0.51634 -8.124722,3.346703 -9.7771809,4.695321 C 9.0284331,19.800093 8.4677669,20.013279 8.4767669,18.215937 8.4992489,13.703265 11.249138,4.0115592 13.472844,3.9780462 Z m 41.897184,0 c 2.223706,0.033513 4.973594,9.7252188 4.996077,14.2378908 0.009,1.797342 -0.551662,1.584156 -0.902787,1.297595 -1.652459,-1.348618 -5.807388,-4.178981 -9.777181,-4.695321 -0.258684,-0.03365 -0.872663,-0.343442 -0.343648,-1.509985 0.586183,-1.292604 4.603327,-9.3516428 6.027539,-9.3301798 z M 21.4398,23.549978 c 5.07477,0 6.325712,3.722808 6.325712,5.827551 0,0.920992 -0.829496,0.895846 -1.040764,0.205672 -0.04248,-0.138785 -0.432215,-4.864302 -5.308203,-4.864302 -4.996385,0 -5.810467,5.289201 -5.893697,5.469433 -0.264518,0.572814 -1.168921,0.726574 -1.168921,-0.183968 0,-0.832753 1.366182,-6.454386 7.085873,-6.454386 z m 25.963789,0 c 5.719696,0 7.085873,5.621632 7.085873,6.454386 0,0.910543 -0.904918,0.756782 -1.169438,0.183968 -0.08323,-0.180233 -0.89679,-5.469433 -5.89318,-5.469433 -4.875993,0 -5.26624,4.725517 -5.30872,4.864302 -0.211268,0.690174 -1.040247,0.715321 -1.040247,-0.205672 0,-2.104745 1.250937,-5.827551 6.325712,-5.827551 z M 33.0825,29.375462 c 0.01878,2e-4 0.03817,0.0011 0.05788,0.0021 1.023227,0.05241 1.281059,0.05891 1.281059,0.05891 0,0 0.258349,-0.0065 1.281576,-0.05891 0.630768,-0.03234 0.779943,0.375615 0.794783,1.083655 0.01483,0.70804 -1.696056,1.66634 -1.618506,2.413289 0.34967,3.367896 3.501745,3.63542 5.41414,1.706873 0.238156,-0.240167 0.630376,-0.180682 0.525549,0.254765 -0.110224,0.457855 -1.209764,1.737941 -3.287654,1.770951 -1.429454,0.02271 -2.726233,-1.022823 -3.030823,-2.159558 -0.03325,-0.124079 -0.120935,-0.121108 -0.150895,-0.0093 -0.305358,1.139605 -1.597292,2.19174 -3.037541,2.16886 -2.07789,-0.03301 -3.17743,-1.313096 -3.287654,-1.770951 -0.104827,-0.435447 0.287393,-0.494932 0.525549,-0.254765 1.912395,1.928547 5.063953,1.661023 5.413623,-1.706873 0.07755,-0.746949 -1.632819,-1.705249 -1.617989,-2.413289 0.01437,-0.685914 0.154682,-1.090522 0.736906,-1.085722 z M 6.4489837,31.83526 c 0.017068,4.8e-5 0.035163,0.0013 0.05426,0.0036 0.043652,0.0052 0.092501,0.01672 0.1462443,0.03514 4.376859,1.785637 5.144502,2.789997 5.15214,2.801896 0.01834,0.02857 0.0085,0.04116 -0.02067,0.03669 -0.01398,-0.0021 -1.492726,-0.236881 -5.3051028,-2.458248 C 6.1685239,32.075282 6.1929566,31.834542 6.4489837,31.83526 Z m 55.9454213,0 c 0.255971,-7.18e-4 0.279945,0.240022 -0.02739,0.419096 -3.812388,2.221373 -5.290606,2.456148 -5.304586,2.458248 -0.02916,0.0045 -0.03953,-0.0081 -0.02119,-0.03669 0.0076,-0.0119 0.775269,-1.016253 5.15214,-2.801896 0.05374,-0.01842 0.10311,-0.02992 0.146761,-0.03514 0.0191,-0.0023 0.0372,-0.0036 0.05426,-0.0036 z m -52.62211,6.526217 c 0.053885,-3.97e-4 0.1043332,-1.96e-4 0.1519287,5.17e-4 0.4569173,0.0068 0.6301723,0.05955 0.6351033,0.06149 0.03158,0.01248 0.03042,0.02896 0.0041,0.04237 -0.0126,0.0064 -1.349858,0.679299 -5.7417682,1.103292 -0.4316035,0.04167 -0.5161825,-0.278254 -0.081132,-0.409794 2.6927026,-0.648856 4.2234633,-0.791925 5.0317342,-0.797884 z m 49.220768,0 c 0.785967,-0.0029 2.327298,0.127396 5.109765,0.797884 0.435054,0.13154 0.349958,0.451464 -0.08165,0.409794 -4.391921,-0.423993 -5.728651,-1.096892 -5.741251,-1.103292 -0.02629,-0.01341 -0.02745,-0.02989 0.0041,-0.04237 0.0049,-0.0019 0.178189,-0.05466 0.635103,-0.06149 0.0238,-3.57e-4 0.04854,-4.25e-4 0.0739,-5.17e-4 z m -47.903536,2.822566 c 0.02368,-2.59e-4 0.02749,0.0135 0.01344,0.03514 -0.0077,0.01186 -0.829011,1.263648 -4.4198851,3.827674 -0.3528848,0.251975 -0.586349,0.01681 -0.2754354,-0.31471 3.4253618,-3.257628 4.6565315,-3.544988 4.6705155,-3.54707 0.0042,-6.25e-4 0.008,-9.96e-4 0.01137,-10e-4 z m 46.664335,0 c 0.0034,3.8e-5 0.0072,4.09e-4 0.01137,10e-4 0.01398,0.0021 1.245146,0.28943 4.670515,3.54707 0.310916,0.331524 0.07745,0.566685 -0.275435,0.31471 -3.590886,-2.564032 -4.412185,-3.815814 -4.419885,-3.827674 -0.01405,-0.02164 -0.01024,-0.0354 0.01344,-0.03514 z"
       transform="translate(25.79711,-1.6546739)" /></g></svg>
