<?xml version="1.0" encoding="UTF-8" standalone="no"?>
<!-- Created with Inkscape (http://www.inkscape.org/) -->

<svg
   width="252.418"
   height="193.436"
   viewBox="0 0 66.785595 51.179942"
   version="1.1"
   id="svg297"
   xml:space="preserve"
   xmlns="http://www.w3.org/2000/svg"
   xmlns:svg="http://www.w3.org/2000/svg"><g
     id="g1250"
     class="UnoptimicedTransforms"
     transform="matrix(-1,0,0,1,67.814693,-1.6546739)"
     style="display:inline"><path
       id="path1236"
       style="display:inline;fill:#1cb9f4;fill-opacity:1;stroke-width:0.326905"
       d="m 55.523866,2.6096112 c -1.759695,-0.02652 -6.723044,9.9307958 -7.447313,11.5278828 -0.653636,1.441332 0.104959,1.824084 0.424593,1.86566 4.904919,0.637963 10.038458,4.134998 12.080175,5.801292 0.433832,0.35406 1.126557,0.617486 1.115437,-1.60324 C 61.668979,14.625534 58.271385,2.6510181 55.523866,2.6096112 Z" /><path
       id="path1077"
       style="display:inline;fill:#1cb9f4;fill-opacity:1;stroke-width:0.326905"
       d="m 13.566383,2.7551087 c 1.759694,-0.02652 6.723043,9.9307963 7.447313,11.5278833 0.653636,1.441332 -0.10496,1.824084 -0.424594,1.86566 C 15.684184,16.786615 10.550644,20.28365 8.5089276,21.949944 8.0750958,22.304004 7.3823711,22.56743 7.393491,20.346704 7.4212698,14.771032 10.818863,2.7965156 13.566383,2.7551087 Z" /><path
       id="path1238"
       style="display:inline;fill:#1cb9f4;fill-opacity:1;stroke-width:0.23779"
       d="M 48.048123,2.9605241 A 1.3814384,1.1511987 0 0 1 46.666684,4.1117226 1.3814384,1.1511987 0 0 1 45.285247,2.9605241 1.3814384,1.1511987 0 0 1 46.666684,1.8093254 1.3814384,1.1511987 0 0 1 48.048123,2.9605241 Z" /><path
       id="path830"
       style="display:inline;fill:#1cb9f4;fill-opacity:1;stroke-width:0.23779"
       d="M 20.85049,2.9320147 A 1.3814384,1.1511987 0 0 0 22.231927,4.0832132 1.3814384,1.1511987 0 0 0 23.613366,2.9320147 1.3814384,1.1511987 0 0 0 22.231927,1.780816 1.3814384,1.1511987 0 0 0 20.85049,2.9320147 Z" /><path
       id="path218"
       style="display:inline;fill:#fafafa;fill-opacity:1;stroke-width:0.266303"
       d="m 22.180323,1.6546739 c -0.876749,-2.653e-4 -1.5875,0.5922921 -1.5875,1.3229166 0,0.7306246 0.710751,1.3230639 1.5875,1.3229167 0.533322,-8.95e-5 1.026386,-0.2247158 1.32085,-0.5901449 0.02542,-0.031545 0.08105,-0.073817 0.225826,-0.057878 4.04159,0.444951 5.875358,1.9914351 6.152596,2.2463745 0.174553,0.160511 0.196694,0.2219354 0.267683,0.4981608 0.476345,1.8534283 0.471048,4.3375684 0.334864,6.1898034 -0.04947,0.67283 -0.386908,0.704581 -1.163754,0.745691 -2.045413,0.10824 -3.976666,0.30115 -5.794478,0.582393 -0.393684,0.06091 -1.121136,0.142304 -1.661914,-0.646472 C 20.790607,11.705712 16.023724,1.7584639 13.350888,1.8412258 9.9793323,1.9456231 6.1936495,13.899773 6.2500294,22.129393 c 0.00883,1.288372 -0.3643448,2.218119 -0.6609415,2.648934 -2.9637431,4.304911 -4.5604451,8.928455 -4.5604451,16.152502 0,11.985761 20.1611782,11.901082 33.3927932,11.901082 13.231615,0 33.392793,0.08468 33.392793,-11.901082 0,-7.224047 -1.596702,-11.847591 -4.560445,-16.152502 -0.296596,-0.430815 -0.669768,-1.360562 -0.660941,-2.648934 0.05638,-8.22962 -3.729303,-20.1837699 -7.100859,-20.2881672 -2.672836,-0.082762 -7.439719,9.8644862 -8.511108,11.4272092 -0.540777,0.788776 -1.268229,0.707382 -1.661914,0.646472 -1.817812,-0.281243 -3.749064,-0.474153 -5.794478,-0.582393 -0.776845,-0.04111 -1.114285,-0.07286 -1.163753,-0.745691 -0.136184,-1.852235 -0.141482,-4.3363747 0.334863,-6.189803 0.07099,-0.2762254 0.09313,-0.3376498 0.267684,-0.4981608 0.277237,-0.2549394 2.111006,-1.8014235 6.152596,-2.2463745 0.144777,-0.015939 0.200407,0.026333 0.225826,0.057878 0.294463,0.3654291 0.787527,0.5900554 1.320849,0.5901449 0.876749,1.472e-4 1.5875,-0.5922921 1.5875,-1.3229167 0,-0.7306245 -0.710751,-1.3231819 -1.5875,-1.3229166 -0.699464,2.117e-4 -1.312522,0.3816947 -1.515669,0.9332763 -0.0206,0.055929 -0.038,0.086032 -0.129708,0.097669 -1.165462,0.1478784 -5.994448,1.5177575 -7.748364,3.05201 -0.01548,0.013546 -0.0309,0.039277 -0.03876,0.073897 -0.647497,2.8505581 -0.680775,4.3422694 -0.758093,6.7355064 -0.01846,0.571315 -0.816465,0.718802 -1.210262,0.703833 -0.770198,-0.04316 -1.239641,-0.01712 -1.680518,0 -0.393796,0.01497 -1.191802,-0.132518 -1.210262,-0.703833 C 32.293593,10.153796 32.260317,8.6620847 31.61282,5.8115266 31.60492,5.7769066 31.58954,5.7511756 31.57406,5.7376296 29.820143,4.2033771 24.991157,2.833498 23.825696,2.6856196 23.733986,2.6739836 23.716588,2.6438806 23.695988,2.5879506 23.49284,2.036369 22.879782,1.654886 22.180318,1.6546743 Z m -0.03566,0.3922241 c 0.616965,-1.795e-4 1.117232,0.416555 1.117245,0.9306925 -1.3e-5,0.5141375 -0.50028,0.9308721 -1.117245,0.9306926 C 21.5279,3.9082242 21.027949,3.4915594 21.027936,2.9775905 21.027949,2.4636216 21.5279,2.0469569 22.144663,2.046898 Z m 24.55354,0 c 0.616763,5.84e-5 1.116715,0.4167233 1.116728,0.9306925 -1.3e-5,0.5139692 -0.499965,0.9306342 -1.116728,0.9306926 -0.616965,1.791e-4 -1.117231,-0.4165554 -1.117244,-0.9306926 1.3e-5,-0.5141371 0.500279,-0.9308716 1.117244,-0.9306925 z M 13.472844,3.9780462 c 1.424221,-0.021464 5.441347,8.0375668 6.027539,9.3301798 0.529025,1.166552 -0.08495,1.476335 -0.343648,1.509985 -3.969829,0.51634 -8.124704,3.346694 -9.7771809,4.695321 C 9.0284295,19.800093 8.4677669,20.013297 8.4767669,18.215937 8.4992498,13.703229 11.24912,4.0115592 13.472844,3.9780462 Z m 41.897184,0 c 2.223724,0.033513 4.973594,9.7251828 4.996077,14.2378908 0.009,1.79736 -0.551662,1.584156 -0.902787,1.297595 -1.652477,-1.348627 -5.807352,-4.178981 -9.777181,-4.695321 -0.258693,-0.03365 -0.872672,-0.343433 -0.343648,-1.509985 0.586192,-1.292613 4.603318,-9.3516437 6.027539,-9.3301798 z"
       transform="matrix(-1,0,0,1,68.843336,2.2512952e-8)" /><path
       id="path1240"
       style="display:inline;fill:#1cb9f4;fill-opacity:1;stroke-width:0.264583;image-rendering:auto"
       d="m 35.760836,29.375462 c 0.582224,-0.0048 0.722535,0.399799 0.736906,1.085722 0.01483,0.708049 -1.695541,1.666331 -1.617989,2.413289 0.34967,3.367923 3.50121,3.635438 5.413623,1.706873 0.238156,-0.240167 0.630376,-0.180682 0.525549,0.254765 -0.110224,0.457864 -1.209746,1.737936 -3.287654,1.770951 -1.440258,0.02288 -2.732241,-1.029064 -3.037599,-2.168678 -0.02996,-0.111806 -0.117591,-0.114879 -0.150838,0.0092 -0.30459,1.136744 -1.601359,2.182201 -3.030822,2.159489 -2.077908,-0.03301 -3.17743,-1.313087 -3.287654,-1.770951 -0.104827,-0.435447 0.287393,-0.494932 0.525549,-0.254765 1.912413,1.928565 5.06447,1.66105 5.41414,-1.706873 0.07755,-0.746958 -1.633336,-1.70524 -1.618506,-2.413289 0.01484,-0.708049 0.164006,-1.115995 0.794783,-1.083655 1.023236,0.05246 1.281576,0.05891 1.281576,0.05891 0,0 0.257823,-0.0065 1.281059,-0.05891 0.01971,-0.001 0.0391,-0.0019 0.05788,-0.0021 z" /><path
       style="display:inline;fill:#1cb9f4;fill-opacity:1;stroke-width:0.264583"
       d="m 62.435732,44.732189 c -3.425389,-3.25766 -4.656362,-3.545174 -4.670346,-3.547256 -0.03359,-0.005 -0.04097,0.0096 -0.02491,0.03433 0.0077,0.01186 0.828868,1.263384 4.419774,3.827426 0.352888,0.251975 0.586414,0.01703 0.275498,-0.314494 z"
       id="path1244" /><path
       style="display:inline;fill:#1cb9f4;fill-opacity:1;stroke-width:0.264583"
       d="m 64.102612,39.159148 c -4.595577,-1.107391 -5.805298,-0.740607 -5.818448,-0.73541 -0.03158,0.01248 -0.03069,0.02878 -0.0044,0.04219 0.0126,0.0064 1.34968,0.679356 5.741621,1.103349 0.431607,0.04167 0.516294,-0.278589 0.08124,-0.410129 z"
       id="path1246" /><path
       style="fill:#1cb9f4;fill-opacity:1;stroke-width:0.264583"
       d="m 62.193619,31.874023 c -4.376883,1.785649 -5.144502,2.789998 -5.15214,2.801897 -0.01834,0.02857 -0.0081,0.04129 0.02106,0.03682 0.01398,-0.0021 1.492311,-0.237001 5.304711,-2.45838 0.374654,-0.218301 0.256316,-0.527706 -0.173633,-0.380339 z"
       id="path1248" /><path
       style="display:inline;fill:#1cb9f4;fill-opacity:1;stroke-width:0.264583"
       d="m 62.435732,44.732189 c -3.425389,-3.25766 -4.656362,-3.545174 -4.670346,-3.547256 -0.03359,-0.005 -0.04097,0.0096 -0.02491,0.03433 0.0077,0.01186 0.828868,1.263384 4.419774,3.827426 0.352888,0.251975 0.586414,0.01703 0.275498,-0.314494 z"
       id="path746"
       transform="matrix(-1,0,0,1,68.843336,2.2512952e-8)" /><path
       style="display:inline;fill:#1cb9f4;fill-opacity:1;stroke-width:0.264583"
       d="m 64.102612,39.159148 c -4.595577,-1.107391 -5.805298,-0.740607 -5.818448,-0.73541 -0.03158,0.01248 -0.03069,0.02878 -0.0044,0.04219 0.0126,0.0064 1.34968,0.679356 5.741621,1.103349 0.431607,0.04167 0.516294,-0.278589 0.08124,-0.410129 z"
       id="path743"
       transform="matrix(-1,0,0,1,68.843336,2.2512952e-8)" /><path
       style="display:inline;fill:#1cb9f4;fill-opacity:1;stroke-width:0.264583"
       d="m 62.193619,31.874023 c -4.376883,1.785649 -5.144502,2.789998 -5.15214,2.801897 -0.01834,0.02857 -0.0081,0.04129 0.02106,0.03682 0.01398,-0.0021 1.492311,-0.237001 5.304711,-2.45838 0.374654,-0.218301 0.256316,-0.527706 -0.173633,-0.380339 z"
       id="path741"
       transform="matrix(-1,0,0,1,68.843336,2.2512952e-8)" /><path
       style="display:inline;fill:#1cb9f4;fill-opacity:1;stroke-width:0.264583"
       d="m 41.077655,29.37738 c 0,0.920994 0.829412,0.89619 1.04068,0.206016 0.04248,-0.138785 0.432644,-4.864306 5.308642,-4.864306 4.996395,0 5.810062,5.289185 5.893292,5.469419 0.26452,0.572814 1.169305,0.72638 1.169305,-0.184164 0,-0.832755 -1.366282,-6.454559 -7.085983,-6.454559 -5.07478,0 -6.325936,3.722847 -6.325936,5.827594 z"
       id="path1242" /><path
       style="display:inline;fill:#1cb9f4;fill-opacity:1;stroke-width:0.264583"
       d="m 41.077655,29.37738 c 0,0.920994 0.829412,0.89619 1.04068,0.206016 0.04248,-0.138785 0.432644,-4.864306 5.308642,-4.864306 4.996395,0 5.810062,5.289185 5.893292,5.469419 0.26452,0.572814 1.169305,0.72638 1.169305,-0.184164 0,-0.832755 -1.366282,-6.454559 -7.085983,-6.454559 -5.07478,0 -6.325936,3.722847 -6.325936,5.827594 z"
       id="path730"
       transform="matrix(-1,0,0,1,68.843336,1.0158732e-8)" /></g></svg>
